<svg viewBox="0 0 800 500" preserveAspectRatio="none" xmlns="http://www.w3.org/2000/svg" xmlns:xlink="http://www.w3.org/1999/xlink" width="100%" id="blobSvg">
  <g transform="translate(160.10461807250977, -5.273704528808594)">
    <defs>
      <linearGradient id="gradient" x1="0%" y1="0%" x2="0%" y2="100%">
        <stop offset="0%" style="stop-color: rgb(76, 161, 175);"></stop>
        <stop offset="100%" style="stop-color: rgb(196, 224, 229);"></stop>
      </linearGradient>
    </defs>
    <path class="blob" d="M455.5,293Q429,336,404,373.5Q379,411,334.5,417Q290,423,249,427.5Q208,432,152.5,437Q97,442,85.5,388.5Q74,335,51,292.5Q28,250,28,196.5Q28,143,72,112.5Q116,82,160,66Q204,50,253,36Q302,22,352,40.5Q402,59,417,110.5Q432,162,457,206Q482,250,455.5,293Z" fill="url(#gradient)"></path>
  </g>
</svg>